<?xml version="1.0" encoding="UTF-8"?>
<svg width="200px" height="60px" viewBox="0 0 200 60" version="1.1" xmlns="http://www.w3.org/2000/svg">
  <g fill="none" fill-rule="evenodd">
    <rect fill="#6C5CE7" x="0" y="0" width="200" height="60" rx="8"></rect>
    <path d="M30,15 L50,15 C52.7614,15 55,17.2386 55,20 L55,40 C55,42.7614 52.7614,45 50,45 L30,45 C27.2386,45 25,42.7614 25,40 L25,20 C25,17.2386 27.2386,15 30,15 Z" fill="#FFFFFF"></path>
    <path d="M35,25 L45,25 C46.1046,25 47,25.8954 47,27 L47,33 C47,34.1046 46.1046,35 45,35 L35,35 C33.8954,35 33,34.1046 33,33 L33,27 C33,25.8954 33.8954,25 35,25 Z" fill="#6C5CE7"></path>
    <path d="M65,20 L135,20 C137.761,20 140,22.2386 140,25 L140,35 C140,37.7614 137.761,40 135,40 L65,40 C62.2386,40 60,37.7614 60,35 L60,25 C60,22.2386 62.2386,20 65,20 Z" fill="#FFFFFF"></path>
    <text font-family="Arial-BoldMT, Arial" font-size="18" font-weight="bold" fill="#6C5CE7">
      <tspan x="75" y="35">SHOPIFY</tspan>
    </text>
  </g>
</svg>