<?xml version="1.0" encoding="UTF-8"?>
<svg version="1.1" xmlns="http://www.w3.org/2000/svg" width="232" height="76">
<path d="M0 0 C1.084021 0.00523682 2.16804199 0.01047363 3.28491211 0.01586914 C4.45473633 0.0190918 5.62456055 0.02231445 6.82983398 0.02563477 C8.0615332 0.03401367 9.29323242 0.04239258 10.56225586 0.05102539 C12.41560547 0.05779297 12.41560547 0.05779297 14.30639648 0.06469727 C17.37089703 0.07652931 20.43530307 0.09301366 23.49975586 0.11352539 C23.88194353 1.76967196 24.21370688 3.43809563 24.49975586 5.11352539 C22.69508603 6.91819522 19.7687277 6.52845097 17.31225586 6.73461914 C16.71413086 6.8596582 16.11600586 6.98469727 15.49975586 7.11352539 C15.16975586 7.77352539 14.83975586 8.43352539 14.49975586 9.11352539 C15.11496094 9.09257812 15.73016602 9.07163086 16.36401367 9.05004883 C19.15909395 8.96675522 21.95391301 8.91482526 24.74975586 8.86352539 C26.20188477 8.81325195 26.20188477 8.81325195 27.68334961 8.76196289 C29.08520508 8.74262695 29.08520508 8.74262695 30.51538086 8.72290039 C31.37421875 8.70195312 32.23305664 8.68100586 33.11791992 8.65942383 C35.49975586 9.11352539 35.49975586 9.11352539 37.77319336 10.4934082 C40.4751441 14.59371015 40.10305716 18.61605151 40.10913086 23.42602539 C40.12566711 24.43189697 40.14220337 25.43776855 40.15924072 26.47412109 C40.20778388 29.68731695 40.22908882 32.90004119 40.24975586 36.11352539 C40.27791553 38.2776119 40.30784294 40.44167618 40.33959961 42.60571289 C40.43412252 49.44158893 40.49975586 56.27697018 40.49975586 63.11352539 C20.36975586 63.11352539 0.23975586 63.11352539 -20.50024414 63.11352539 C-20.50024414 55.2009206 -20.40882643 47.28985476 -20.29272461 39.37817383 C-20.26440536 37.20182293 -20.24324581 35.02536708 -20.22924805 32.84887695 C-20.20786123 29.70739047 -20.16125824 26.56714213 -20.10961914 23.42602539 C-20.10777618 21.96652466 -20.10777618 21.96652466 -20.105896 20.47753906 C-19.96112236 13.81292372 -19.96112236 13.81292372 -17.77368164 10.4934082 C-15.10185395 8.87171897 -13.62487759 8.64707092 -10.51586914 8.72290039 C-9.58129883 8.73579102 -8.64672852 8.74868164 -7.68383789 8.76196289 C-6.71575195 8.79547852 -5.74766602 8.82899414 -4.75024414 8.86352539 C-3.27491211 8.8905957 -3.27491211 8.8905957 -1.76977539 8.91821289 C0.65439369 8.96528413 3.07657645 9.03101797 5.49975586 9.11352539 C5.49975586 8.12352539 5.49975586 7.13352539 5.49975586 6.11352539 C2.85975586 6.11352539 0.21975586 6.11352539 -2.50024414 6.11352539 C-2.88243181 4.45737882 -3.21419516 2.78895515 -3.50024414 1.11352539 C-2.50024414 0.11352539 -2.50024414 0.11352539 0 0 Z M-9.50024414 20.11352539 C-9.50024414 25.72352539 -9.50024414 31.33352539 -9.50024414 37.11352539 C-7.89746335 34.97648434 -6.30726471 32.82762994 -4.81274414 30.61352539 C-1.80896415 27.36619567 1.48605272 25.85734302 5.49975586 24.11352539 C5.49975586 22.79352539 5.49975586 21.47352539 5.49975586 20.11352539 C0.54975586 20.11352539 -4.40024414 20.11352539 -9.50024414 20.11352539 Z M15.49975586 20.11352539 C15.85193467 23.8089542 15.85193467 23.8089542 18.20678711 26.48461914 C18.9015918 26.8365332 19.59639648 27.18844727 20.31225586 27.55102539 C24.40916452 29.86059329 26.2225855 32.03359517 28.49975586 36.11352539 C30.81874842 34.22849441 30.81874842 34.22849441 30.73022461 31.10961914 C30.71604492 29.9352832 30.70186523 28.76094727 30.68725586 27.55102539 C30.68081055 26.37411133 30.67436523 25.19719727 30.66772461 23.98461914 C30.82493021 21.21716566 30.82493021 21.21716566 29.49975586 20.11352539 C27.14662031 20.04080798 24.79141917 20.02981671 22.43725586 20.05102539 C21.1469043 20.06004883 19.85655273 20.06907227 18.52709961 20.07836914 C17.52807617 20.0899707 16.52905273 20.10157227 15.49975586 20.11352539 Z M-1.87524414 34.67602539 C-5.19793082 39.6600554 -5.44460294 44.21723472 -4.50024414 50.11352539 C-2.35520558 54.30273863 0.42601574 57.12849884 4.68725586 59.15258789 C9.46890729 60.53063327 13.25432594 60.21048468 17.77709961 58.16040039 C21.43065879 55.94009685 23.0451963 53.08758159 24.81225586 49.30102539 C25.86328061 44.42809248 25.87913259 40.40949122 23.30053711 36.11743164 C19.53675797 31.36578396 16.11285043 29.57674264 10.06225586 28.80102539 C5.12446597 29.40319489 1.50749668 31.02622608 -1.87524414 34.67602539 Z " fill="#264C50" transform="translate(31.500244140625,5.886474609375)"/>
<path d="M0 0 C0 1.65 0 3.3 0 5 C-2.16874252 4.49396008 -3.99967627 4.00016187 -6 3 C-6 4.98 -6 6.96 -6 9 C-4.68 9.33 -3.36 9.66 -2 10 C-2 10.99 -2 11.98 -2 13 C-3.32 13 -4.64 13 -6 13 C-6 16.96 -6 20.92 -6 25 C-5.34 25 -4.68 25 -4 25 C-4 25.99 -4 26.98 -4 28 C-4.91495239 27.99214478 -4.91495239 27.99214478 -5.84838867 27.98413086 C-8.62808185 27.96326665 -11.40775851 27.95030987 -14.1875 27.9375 C-15.14720703 27.92912109 -16.10691406 27.92074219 -17.09570312 27.91210938 C-18.02705078 27.90888672 -18.95839844 27.90566406 -19.91796875 27.90234375 C-20.77156982 27.89710693 -21.6251709 27.89187012 -22.50463867 27.88647461 C-25.04485178 27.93018858 -25.04485178 27.93018858 -27.64575195 28.58813477 C-30 29 -30 29 -32.75 27.6875 C-35 26 -35 26 -36 24 C-36.07033769 22.12620395 -36.0843022 20.24998898 -36.0625 18.375 C-36.05347656 17.37210938 -36.04445312 16.36921875 -36.03515625 15.3359375 C-36.01775391 14.17964844 -36.01775391 14.17964844 -36 13 C-36.99 12.67 -37.98 12.34 -39 12 C-37.875 10.5 -37.875 10.5 -36 9 C-32.875 8.75 -32.875 8.75 -30 9 C-28.12175109 10.87824891 -28.60897603 14.03935276 -28.4375 16.5625 C-28.35371094 17.76003906 -28.26992187 18.95757812 -28.18359375 20.19140625 C-28.12300781 21.11824219 -28.06242188 22.04507813 -28 23 C-27.01 23 -26.02 23 -25 23 C-25 19.7 -25 16.4 -25 13 C-25.66 13 -26.32 13 -27 13 C-27 12.01 -27 11.02 -27 10 C-20.84765625 9.12109375 -20.84765625 9.12109375 -19 9 C-18 10 -18 10 -17.90234375 13.37890625 C-17.90901631 14.77347077 -17.92097468 16.16801743 -17.9375 17.5625 C-17.94201172 18.27341797 -17.94652344 18.98433594 -17.95117188 19.71679688 C-17.96299136 21.47790013 -17.98092737 23.23896036 -18 25 C-16.35 25 -14.7 25 -13 25 C-13 21.04 -13 17.08 -13 13 C-13.99 12.67 -14.98 12.34 -16 12 C-15.67 11.34 -15.34 10.68 -15 10 C-14.34 10 -13.68 10 -13 10 C-12.896875 8.906875 -12.79375 7.81375 -12.6875 6.6875 C-12 3 -12 3 -10.75 1.125 C-7.18219025 -1.16859198 -3.96448794 -1.32149598 0 0 Z " fill="#27484C" transform="translate(225,27)"/>
<path d="M0 0 C2.6875 -0.3125 2.6875 -0.3125 6 0 C10.46216745 3.56973396 13.67063472 8.38922953 17 13 C18.19988045 7.71800407 18.19988045 7.71800407 16 3 C16 2.01 16 1.02 16 0 C18.97 0 21.94 0 25 0 C25 4.90548604 24.78209088 9.78767363 24.5625 14.6875 C24.52318359 15.66267578 24.48386719 16.63785156 24.44335938 17.64257812 C24.40146484 18.56876953 24.35957031 19.49496094 24.31640625 20.44921875 C24.27974854 21.29830811 24.24309082 22.14739746 24.20532227 23.0222168 C24 25 24 25 23 26 C20.6953125 26.359375 20.6953125 26.359375 18 26 C15.8671875 23.953125 15.8671875 23.953125 13.875 21.25 C13.21242187 20.36828125 12.54984375 19.4865625 11.8671875 18.578125 C11.25101563 17.72734375 10.63484375 16.8765625 10 16 C9.01 14.68 8.02 13.36 7 12 C7 15.3 7 18.6 7 22 C7.66 22.33 8.32 22.66 9 23 C9 23.99 9 24.98 9 26 C5.7 26 2.4 26 -1 26 C-1 25.01 -1 24.02 -1 23 C-0.34 22.67 0.32 22.34 1 22 C1 16.06 1 10.12 1 4 C0.34 3.67 -0.32 3.34 -1 3 C-0.67 2.01 -0.34 1.02 0 0 Z " fill="#274C50" transform="translate(143,29)"/>
<path d="M0 0 C3.96 0 7.92 0 12 0 C12 0.99 12 1.98 12 3 C11.34 3 10.68 3 10 3 C10.64219502 4.98035021 11.28885644 6.95925256 11.9375 8.9375 C12.29714844 10.03964844 12.65679687 11.14179687 13.02734375 12.27734375 C13.73856668 14.88123475 13.73856668 14.88123475 15 16 C15.5574301 14.06697628 16.09546757 12.12835147 16.625 10.1875 C16.92664063 9.10855469 17.22828125 8.02960937 17.5390625 6.91796875 C18.36687395 3.81610174 18.36687395 3.81610174 16 1 C17 0 17 0 20.37890625 -0.09765625 C21.77347077 -0.09098369 23.16801743 -0.07902532 24.5625 -0.0625 C25.27341797 -0.05798828 25.98433594 -0.05347656 26.71679688 -0.04882812 C28.47790013 -0.03700864 30.23896036 -0.01907263 32 0 C32.625 1.875 32.625 1.875 33 4 C32.34 4.66 31.68 5.32 31 6 C28.54901444 5.60467975 26.36095721 4.78698574 24 4 C23.68977905 4.94637329 23.68977905 4.94637329 23.37329102 5.91186523 C22.43946574 8.75477449 21.50104674 11.59614616 20.5625 14.4375 C20.23701172 15.43072266 19.91152344 16.42394531 19.57617188 17.44726562 C19.26357422 18.39150391 18.95097656 19.33574219 18.62890625 20.30859375 C18.34088135 21.18314209 18.05285645 22.05769043 17.75610352 22.95874023 C17 25 17 25 16 26 C14.00041636 26.04080783 11.99954746 26.04254356 10 26 C9.04027826 23.45884998 8.08218506 20.91710543 7.125 18.375 C6.85558594 17.66214844 6.58617188 16.94929688 6.30859375 16.21484375 C6.04433594 15.51230469 5.78007813 14.80976562 5.5078125 14.0859375 C5.24774414 13.39467773 4.98767578 12.70341797 4.71972656 11.99121094 C4.06950351 10.1922899 3.49483113 8.36649775 2.9296875 6.5390625 C2.27493795 3.85158142 2.27493795 3.85158142 0 3 C0 2.01 0 1.02 0 0 Z " fill="#59989A" transform="translate(74,29)"/>
<path d="M0 0 C2 1.8125 2 1.8125 3 4 C2.6875 6.75 2.6875 6.75 2 9 C-1.3 9 -4.6 9 -8 9 C-8 10.32 -8 11.64 -8 13 C-4.4780279 13.08004482 -1.38018531 13.04005702 2 12 C2.33 12.66 2.66 13.32 3 14 C1.257411 16.42447165 -0.10799408 17.82692422 -3.09375 18.40625 C-7.21765978 18.57120639 -9.43647745 18.35220159 -13 16.125 C-15.34633964 13.63201413 -15.92662599 12.64569126 -16.3125 9.25 C-15.91485635 5.11450604 -14.65876389 3.16177328 -12 0 C-7.68878516 -2.79646368 -4.61519708 -1.88026548 0 0 Z M-7 2 C-7.33 2.99 -7.66 3.98 -8 5 C-6.68 5 -5.36 5 -4 5 C-4.33 4.01 -4.66 3.02 -5 2 C-5.66 2 -6.32 2 -7 2 Z " fill="#25474C" transform="translate(184,37)"/>
<path d="M0 0 C0.66 0 1.32 0 2 0 C7.66666667 0 13.33333333 0 19 0 C19 1.65 19 3.3 19 5 C15.58725548 5.78005589 12.49709303 6.09202876 9 6 C6.9590589 6 4.91811201 6.00549783 2.87719727 6.01586914 C-0.49894838 6.03295643 -3.87504859 6.04540627 -7.2512207 6.05493164 C-8.7069572 6.05997104 -10.16268861 6.06680259 -11.6184082 6.07543945 C-13.72348259 6.08759099 -15.82849065 6.09324547 -17.93359375 6.09765625 C-19.19228271 6.10289307 -20.45097168 6.10812988 -21.74780273 6.11352539 C-24.38924286 6.02131988 -26.50045883 5.79219361 -29 5 C-29.33 3.35 -29.66 1.7 -30 0 C-19.95157002 -1.4677482 -10.07806152 -0.6453931 0 0 Z " fill="#294A4F" transform="translate(114,60)"/>
<path d="M0 0 C3 1 3 1 4.09765625 2.70703125 C4.41605469 3.40183594 4.73445313 4.09664062 5.0625 4.8125 C5.54396484 5.84310547 5.54396484 5.84310547 6.03515625 6.89453125 C6.35355469 7.58933594 6.67195313 8.28414062 7 9 C7.37253906 9.67289063 7.74507812 10.34578125 8.12890625 11.0390625 C9.55260209 14.2439742 8.84402536 16.68418607 8 20 C5.77834456 22.55078958 4.39170557 22.93332671 1.0625 23.5 C-3.14517131 22.81303325 -4.52070473 21.4272611 -7 18 C-8.32001484 11.87993121 -5.60142335 8.03343323 -2.41015625 3.0390625 C-1 1 -1 1 0 0 Z M-1 15 C-0.67 16.32 -0.34 17.64 0 19 C0.66 18.67 1.32 18.34 2 18 C1.01 17.01 0.02 16.02 -1 15 Z " fill="#68A3A7" transform="translate(41,39)"/>
<path d="M0 0 C2.15625 1.1328125 2.15625 1.1328125 4 3 C4.5390625 5.8828125 4.5390625 5.8828125 4.625 9.125 C4.6861457 11.08636576 4.7960915 13.04830439 5 15 C5.66 15.33 6.32 15.66 7 16 C6.67 16.99 6.34 17.98 6 19 C3.54137599 19.05383848 1.0839245 19.09359038 -1.375 19.125 C-2.42300781 19.15013672 -2.42300781 19.15013672 -3.4921875 19.17578125 C-5.32897486 19.19344267 -7.16601963 19.10303261 -9 19 C-11 17 -11 17 -11.3125 13.5 C-11.209375 12.345 -11.10625 11.19 -11 10 C-8 8 -8 8 -5.375 7.5 C-4.59125 7.335 -3.8075 7.17 -3 7 C-2.67 6.34 -2.34 5.68 -2 5 C-4.64 5.33 -7.28 5.66 -10 6 C-10.33 5.34 -10.66 4.68 -11 4 C-7.42422202 0.26168666 -5.24882778 -0.41990622 0 0 Z M-6 12 C-5.67 12.99 -5.34 13.98 -5 15 C-4.01 14.67 -3.02 14.34 -2 14 C-2 13.01 -2 12.02 -2 11 C-4.0745356 10.8509288 -4.0745356 10.8509288 -6 12 Z " fill="#5D9D9F" transform="translate(133,36)"/>
<path d="M0 0 C1.67542976 0.28604898 3.34385343 0.61781233 5 1 C5 1.99 5 2.98 5 4 C6.65 4.33 8.3 4.66 10 5 C9.67 5.99 9.34 6.98 9 8 C7.68 8 6.36 8 5 8 C5.33 11.3 5.66 14.6 6 18 C6.99 18 7.98 18 9 18 C9 19.32 9 20.64 9 22 C6.20129973 23.39935013 4.09501208 23.25265405 1 23 C-0.6796875 21.87109375 -0.6796875 21.87109375 -2 20 C-2.29296875 17.08203125 -2.29296875 17.08203125 -2.1875 13.8125 C-2.16042969 12.72582031 -2.13335937 11.63914062 -2.10546875 10.51953125 C-2.07066406 9.68808594 -2.03585938 8.85664062 -2 8 C-2.66 8 -3.32 8 -4 8 C-4 7.01 -4 6.02 -4 5 C-3.34 5 -2.68 5 -2 5 C-1.7834375 4.0409375 -1.7834375 4.0409375 -1.5625 3.0625 C-1 1 -1 1 0 0 Z " fill="#5C9699" transform="translate(112,32)"/>
<path d="M0 0 C11.88 0 23.76 0 36 0 C36 1.98 36 3.96 36 6 C34.58344207 6.0272415 33.16672955 6.04650467 31.75 6.0625 C30.56664062 6.07990234 30.56664062 6.07990234 29.359375 6.09765625 C27 6 27 6 24.984375 5.46484375 C22.6249098 4.91213438 20.89268776 5.14907246 18.5 5.5 C12.57979434 6.1980541 6.90361057 5.65933795 1 5 C0.67 3.35 0.34 1.7 0 0 Z " fill="#2A4C52" transform="translate(140,60)"/>
<path d="M0 0 C3.96 0 7.92 0 12 0 C12 0.99 12 1.98 12 3 C11.34 3 10.68 3 10 3 C10.40062472 10.17297764 10.40062472 10.17297764 12.625 16.9375 C14 20 14 20 13 23 C12.01 22.67 11.02 22.34 10 22 C9.12109375 20.1875 9.12109375 20.1875 8.4375 18 C7.79318716 15.85458962 7.79318716 15.85458962 7 14 C6.34 13.67 5.68 13.34 5 13 C4.11917692 10.70985999 3.46696231 8.38652273 2.78125 6.03125 C2.19064164 3.81437525 2.19064164 3.81437525 0 3 C0 2.01 0 1.02 0 0 Z " fill="#66A4A8" transform="translate(74,29)"/>
<path d="M0 0 C0.625 2.5625 0.625 2.5625 1 5 C-3.47568357 6.37713341 -7.55176251 6.48274583 -12 5 C-14.00720923 5.28674418 -16.0085944 5.61866701 -18 6 C-20.15634036 6 -21.92446352 5.5534764 -24 5 C-24 3.35 -24 1.7 -24 0 C-20.3754207 -0.19632025 -16.75032733 -0.38055978 -13.125 -0.5625 C-12.09246094 -0.61857422 -11.05992187 -0.67464844 -9.99609375 -0.73242188 C-8.51689453 -0.80493164 -8.51689453 -0.80493164 -7.0078125 -0.87890625 C-6.09660645 -0.9260376 -5.18540039 -0.97316895 -4.24658203 -1.02172852 C-2 -1 -2 -1 0 0 Z " fill="#2D4950" transform="translate(204,60)"/>
<path d="M0 0 C0 5.28 0 10.56 0 16 C0.66 16 1.32 16 2 16 C2 16.99 2 17.98 2 19 C-1.3 19 -4.6 19 -8 19 C-8 18.01 -8 17.02 -8 16 C-7.34 16 -6.68 16 -6 16 C-6.14183696 14.24967156 -6.28863429 12.49974466 -6.4375 10.75 C-6.51871094 9.77546875 -6.59992188 8.8009375 -6.68359375 7.796875 C-6.95074584 5.43538247 -7.35371968 3.28098935 -8 1 C-5.23735711 0.40267181 -2.83967231 0 0 0 Z " fill="#5F9193" transform="translate(107,36)"/>
<path d="M0 0 C3 1 3 1 4.09765625 2.63671875 C5.09086026 4.74777991 6.06485531 6.86252641 7 9 C7.7115625 10.5778125 7.7115625 10.5778125 8.4375 12.1875 C9 15 9 15 7.75 17.875 C7.1725 18.57625 6.595 19.2775 6 20 C5.34 20 4.68 20 4 20 C3.566875 18.906875 3.13375 17.81375 2.6875 16.6875 C1.72943947 14.39727912 1.22094447 13.18821196 -0.6875 11.5625 C-3.05881373 8.73950746 -2.28155355 5.54757473 -2 2 C-1.34 1.34 -0.68 0.68 0 0 Z " fill="#64A5A7" transform="translate(41,39)"/>
<path d="M0 0 C2.97 0 5.94 0 9 0 C9 3.16227399 8.82985212 6.11640488 8.5 9.25 C8.4071875 10.14203125 8.314375 11.0340625 8.21875 11.953125 C8.1465625 12.62859375 8.074375 13.3040625 8 14 C7.34 13.67 6.68 13.34 6 13 C5.01 13.33 4.02 13.66 3 14 C2.49598159 11.47990794 1.9921827 8.95993632 1.5 6.4375 C1.05725659 4.27912585 0.53438258 2.13753034 0 0 Z " fill="#233F47" transform="translate(159,29)"/>
<path d="M0 0 C5.61 0 11.22 0 17 0 C17 1.65 17 3.3 17 5 C13.58725548 5.78005589 10.49709303 6.09202876 7 6 C6.01 6 5.02 6 4 6 C3.34 6 2.68 6 2 6 C0 3 0 3 0 0 Z " fill="#234D53" transform="translate(116,60)"/>
<path d="M0 0 C4.95 0 9.9 0 15 0 C14.67 1.65 14.34 3.3 14 5 C9.94787741 5.84811868 7.01336646 5.97622427 3 5 C2.01 5 1.02 5 0 5 C0 3.35 0 1.7 0 0 Z " fill="#2B494F" transform="translate(206,60)"/>
<path d="M0 0 C0.66 0.33 1.32 0.66 2 1 C1.67 2.32 1.34 3.64 1 5 C3.475 5.99 3.475 5.99 6 7 C6.33 6.34 6.66 5.68 7 5 C7.66 5.33 8.32 5.66 9 6 C8.67 6.99 8.34 7.98 8 9 C5.54137599 9.05383848 3.0839245 9.09359038 0.625 9.125 C-0.42300781 9.15013672 -0.42300781 9.15013672 -1.4921875 9.17578125 C-3.32897486 9.19344267 -5.16601963 9.10303261 -7 9 C-7.66 8.34 -8.32 7.68 -9 7 C-8.625 4.875 -8.625 4.875 -8 3 C-7.67 3.66 -7.34 4.32 -7 5 C-6.34 5 -5.68 5 -5 5 C-4.67 4.01 -4.34 3.02 -4 2 C-3.67 2.66 -3.34 3.32 -3 4 C-2.34 4 -1.68 4 -1 4 C-0.67 2.68 -0.34 1.36 0 0 Z " fill="#4F888C" transform="translate(131,46)"/>
<path d="M0 0 C2.99324263 1.0975223 3.84610901 1.67682892 5.25 4.625 C5.4975 5.40875 5.745 6.1925 6 7 C8.51083114 5.74458443 8.87125446 4.49936512 10 2 C10.33 2.99 10.66 3.98 11 5 C6.87085308 9.85781991 6.87085308 9.85781991 2.9375 10.5 C-0.22038995 9.96248682 -1.67106405 9.14978703 -4 7 C-3.67 6.34 -3.34 5.68 -3 5 C-2.34 5 -1.68 5 -1 5 C-0.67 3.35 -0.34 1.7 0 0 Z M1 2 C1.33 3.32 1.66 4.64 2 6 C2.66 5.67 3.32 5.34 4 5 C3.01 4.01 2.02 3.02 1 2 Z " fill="#53868A" transform="translate(39,52)"/>
<path d="M0 0 C0.66 0.33 1.32 0.66 2 1 C2 5.62 2 10.24 2 15 C0.35 14.67 -1.3 14.34 -3 14 C-3 9.71 -3 5.42 -3 1 C-2.01 0.67 -1.02 0.34 0 0 Z " fill="#214C4F" transform="translate(204,37)"/>
<path d="M0 0 C0.66 0.33 1.32 0.66 2 1 C2 1.66 2 2.32 2 3 C2.99 3.33 3.98 3.66 5 4 C4.67 4.66 4.34 5.32 4 6 C-2.27 5.67 -8.54 5.34 -15 5 C-14.67 4.34 -14.34 3.68 -14 3 C-11.6739143 2.61936779 -9.33944736 2.28730055 -7 2 C-6.34 1.67 -5.68 1.34 -5 1 C-5 1.66 -5 2.32 -5 3 C-4.21625 2.484375 -3.4325 1.96875 -2.625 1.4375 C-1.75875 0.963125 -0.8925 0.48875 0 0 Z " fill="#1A3D43" transform="translate(113,60)"/>
<path d="M0 0 C1.485 0.99 1.485 0.99 3 2 C3 1.34 3 0.68 3 0 C6 1 6 1 7.125 2.625 C8.26170333 5.71033761 8.62420256 8.74308885 9 12 C6.25 11.5625 6.25 11.5625 3 10 C1.27291518 7.13722607 0.10192085 4.15019724 -1 1 C-0.67 0.67 -0.34 0.34 0 0 Z " fill="#2C5057" transform="translate(54,39)"/>
<path d="M0 0 C0.66 0.33 1.32 0.66 2 1 C2 5.29 2 9.58 2 14 C1.01 14 0.02 14 -1 14 C-1.13277344 13.30132812 -1.26554687 12.60265625 -1.40234375 11.8828125 C-1.57894531 10.97273438 -1.75554687 10.06265625 -1.9375 9.125 C-2.11152344 8.22007813 -2.28554687 7.31515625 -2.46484375 6.3828125 C-2.89963701 4.00043683 -2.89963701 4.00043683 -4 2 C-2.125 0.9375 -2.125 0.9375 0 0 Z " fill="#5EA7AD" transform="translate(104,38)"/>
<path d="M0 0 C0 3.96 0 7.92 0 12 C-0.33 12 -0.66 12 -1 12 C-1.33 8.37 -1.66 4.74 -2 1 C-3.32 1 -4.64 1 -6 1 C-5.67 1.66 -5.34 2.32 -5 3 C-4.90500497 4.49756871 -4.87012802 5.99942932 -4.875 7.5 C-4.87242187 8.2940625 -4.86984375 9.088125 -4.8671875 9.90625 C-5 12 -5 12 -6 14 C-6.66 13.67 -7.32 13.34 -8 13 C-7.67 9.7 -7.34 6.4 -7 3 C-7.66 3 -8.32 3 -9 3 C-9 2.01 -9 1.02 -9 0 C-5.32211882 -1.22596039 -4.21550387 -0.84310077 0 0 Z " fill="#254043" transform="translate(207,37)"/>
<path d="M0 0 C1.485 0.99 1.485 0.99 3 2 C2.67 2.99 2.34 3.98 2 5 C1.84629652 7.72883073 1.74271735 10.43697142 1.68359375 13.16796875 C1.66281265 13.96278152 1.64203156 14.7575943 1.62062073 15.57649231 C1.55527913 18.11340763 1.49631192 20.65042573 1.4375 23.1875 C1.39430014 24.90821372 1.35068537 26.62891708 1.30664062 28.34960938 C1.19961352 32.56630113 1.09830276 36.7830962 1 41 C0.67 41 0.34 41 0 41 C0 27.47 0 13.94 0 0 Z " fill="#2D4749" transform="translate(12,19)"/>
<path d="M0 0 C1.18613892 0.00785522 1.18613892 0.00785522 2.39624023 0.01586914 C3.67724609 0.02070312 3.67724609 0.02070312 4.98413086 0.02563477 C5.88196289 0.03401367 6.77979492 0.04239258 7.70483398 0.05102539 C8.6065332 0.05553711 9.50823242 0.06004883 10.43725586 0.06469727 C12.67234712 0.07652315 14.90730835 0.09300319 17.14233398 0.11352539 C17.14233398 0.44352539 17.14233398 0.77352539 17.14233398 1.11352539 C9.22233398 1.60852539 9.22233398 1.60852539 1.14233398 2.11352539 C1.47233398 3.10352539 1.80233398 4.09352539 2.14233398 5.11352539 C4.15741757 5.84676335 4.15741757 5.84676335 6.14233398 6.11352539 C3.50233398 6.11352539 0.86233398 6.11352539 -1.85766602 6.11352539 C-2.23985369 4.45737882 -2.57161703 2.78895515 -2.85766602 1.11352539 C-1.85766602 0.11352539 -1.85766602 0.11352539 0 0 Z " fill="#29484B" transform="translate(30.857666015625,5.886474609375)"/>
<path d="M0 0 C1.258125 -0.020625 2.51625 -0.04125 3.8125 -0.0625 C4.52019531 -0.07410156 5.22789062 -0.08570313 5.95703125 -0.09765625 C8 0 8 0 11 1 C11.33 1.99 11.66 2.98 12 4 C7.52209706 4.77876573 4.37881334 5.16768356 0 4 C0 2.68 0 1.36 0 0 Z " fill="#314D54" transform="translate(180,61)"/>
<path d="M0 0 C4.62 0 9.24 0 14 0 C11 2 11 2 9 2 C8.67 3.32 8.34 4.64 8 6 C7.401875 5.690625 6.80375 5.38125 6.1875 5.0625 C3.91043228 3.89790296 3.91043228 3.89790296 1 3 C0.67 2.01 0.34 1.02 0 0 Z " fill="#33555B" transform="translate(38,24)"/>
<path d="M0 0 C1.67542976 0.28604898 3.34385343 0.61781233 5 1 C5 3.64 5 6.28 5 9 C3.02 9.99 3.02 9.99 1 11 C0 8 0 8 0.5625 6 C0.706875 5.34 0.85125 4.68 1 4 C0.34 3.01 -0.32 2.02 -1 1 C-0.67 0.67 -0.34 0.34 0 0 Z " fill="#4E9B9F" transform="translate(91,29)"/>
<path d="M0 0 C4.62 0 9.24 0 14 0 C14 0.66 14 1.32 14 2 C11.92446352 2.5534764 10.15634036 3 8 3 C5.66508361 3.32205743 3.33157492 3.65458149 1 4 C0.67 2.68 0.34 1.36 0 0 Z " fill="#1C4952" transform="translate(98,60)"/>
<path d="M0 0 C-0.33 1.32 -0.66 2.64 -1 4 C-1.99 4 -2.98 4 -4 4 C-4 4.99 -4 5.98 -4 7 C-4.99 7.33 -5.98 7.66 -7 8 C-7.33 6.02 -7.66 4.04 -8 2 C-4.77208445 -0.1519437 -3.71599191 -0.20086443 0 0 Z " fill="#5A9B9B" transform="translate(130,44)"/>
<path d="M0 0 C2.0625 0.4375 2.0625 0.4375 4 1 C3.34 2.32 2.68 3.64 2 5 C-0.97 5 -3.94 5 -7 5 C-7.33 4.01 -7.66 3.02 -8 2 C-6.865625 1.855625 -5.73125 1.71125 -4.5625 1.5625 C-1.19222799 1.38828522 -1.19222799 1.38828522 0 0 Z " fill="#274F51" transform="translate(183,49)"/>
<path d="M0 0 C3.96 0 7.92 0 12 0 C12 0.99 12 1.98 12 3 C11.34 3 10.68 3 10 3 C10 3.99 10 4.98 10 6 C9.34 5.67 8.68 5.34 8 5 C8 3.68 8 2.36 8 1 C6.35 1 4.7 1 3 1 C3.33 2.65 3.66 4.3 4 6 C2 4.6875 2 4.6875 0 3 C0 2.01 0 1.02 0 0 Z " fill="#5F8E91" transform="translate(74,29)"/>
<path d="M0 0 C3.63 0 7.26 0 11 0 C10.67 0.99 10.34 1.98 10 3 C6.7 3.33 3.4 3.66 0 4 C-0.33 3.34 -0.66 2.68 -1 2 C-0.67 1.34 -0.34 0.68 0 0 Z " fill="#54A5A5" transform="translate(123,38)"/>
<path d="M0 0 C0.66 0.33 1.32 0.66 2 1 C1.67 1.99 1.34 2.98 1 4 C-7.25 4 -15.5 4 -24 4 C-24 3.67 -24 3.34 -24 3 C-16.41 2.67 -8.82 2.34 -1 2 C-0.67 1.34 -0.34 0.68 0 0 Z " fill="#20373B" transform="translate(71,65)"/>
<path d="M0 0 C2.64 0 5.28 0 8 0 C8.33 0.66 8.66 1.32 9 2 C4.375 5 4.375 5 1 5 C0.67 3.35 0.34 1.7 0 0 Z " fill="#2D4F57" transform="translate(140,60)"/>
<path d="M0 0 C-0.33 1.65 -0.66 3.3 -1 5 C-3.375 5.1875 -3.375 5.1875 -6 5 C-6.66 4.01 -7.32 3.02 -8 2 C-4.77208445 -0.1519437 -3.71599191 -0.20086443 0 0 Z " fill="#295158" transform="translate(221,60)"/>
<path d="M0 0 C0.66 0.33 1.32 0.66 2 1 C2.33 0.67 2.66 0.34 3 0 C5.33297433 -0.04092937 7.66705225 -0.04241723 10 0 C9.67 0.99 9.34 1.98 9 3 C3.58461538 4.23076923 3.58461538 4.23076923 0.625 3.0625 C0.08875 2.711875 -0.4475 2.36125 -1 2 C-0.67 1.34 -0.34 0.68 0 0 Z " fill="#203F41" transform="translate(192,52)"/>
<path d="M0 0 C0.928125 0.20625 1.85625 0.4125 2.8125 0.625 C2.4825 1.615 2.1525 2.605 1.8125 3.625 C-0.1675 3.955 -2.1475 4.285 -4.1875 4.625 C-4.8475 3.635 -5.5075 2.645 -6.1875 1.625 C-3.1875 -0.375 -3.1875 -0.375 0 0 Z " fill="#469B9F" transform="translate(118.1875,49.375)"/>
<path d="M0 0 C2.9375 0.375 2.9375 0.375 6 1 C6.33 1.66 6.66 2.32 7 3 C6.34 3 5.68 3 5 3 C5.66 4.32 6.32 5.64 7 7 C4.33333333 5.66666667 1.66666667 4.33333333 -1 3 C-0.67 2.01 -0.34 1.02 0 0 Z " fill="#22494C" transform="translate(52,36)"/>
<path d="M0 0 C1.125 3.75 1.125 3.75 0 6 C0.99 5.67 1.98 5.34 3 5 C3.625 6.875 3.625 6.875 4 9 C3.34 9.66 2.68 10.32 2 11 C1.01 10.34 0.02 9.68 -1 9 C-1.4375 2.875 -1.4375 2.875 0 0 Z " fill="#619798" transform="translate(35,48)"/>
<path d="M0 0 C0.99 0 1.98 0 3 0 C3.33 1.65 3.66 3.3 4 5 C2.68 5.33 1.36 5.66 0 6 C-0.38218767 4.34385343 -0.71395102 2.67542976 -1 1 C-0.67 0.67 -0.34 0.34 0 0 Z " fill="#2A5055" transform="translate(135,60)"/>
<path d="M0 0 C3 1 3 1 4.6875 3.9375 C6 7 6 7 6 9 C4.35 9 2.7 9 1 9 C0.67 8.01 0.34 7.02 0 6 C0.66 5.67 1.32 5.34 2 5 C2 4.01 2 3.02 2 2 C1.01 1.67 0.02 1.34 -1 1 C-0.67 0.67 -0.34 0.34 0 0 Z " fill="#669698" transform="translate(41,39)"/>
<path d="M0 0 C0.33 0 0.66 0 1 0 C1 4.29 1 8.58 1 13 C0.01 13 -0.98 13 -2 13 C-2.33 11.02 -2.66 9.04 -3 7 C-2.34 7.66 -1.68 8.32 -1 9 C-0.67 6.03 -0.34 3.06 0 0 Z " fill="#62A2A5" transform="translate(105,39)"/>
<path d="M0 0 C1.98 0.66 3.96 1.32 6 2 C6 2.99 6 3.98 6 5 C4.35 5.33 2.7 5.66 1 6 C1 5.01 1 4.02 1 3 C0.34 2.34 -0.32 1.68 -1 1 C-0.67 0.67 -0.34 0.34 0 0 Z " fill="#233B3E" transform="translate(217,35)"/>
<path d="M0 0 C0.99 0 1.98 0 3 0 C3.625 1.8125 3.625 1.8125 4 4 C3.01 5.485 3.01 5.485 2 7 C1.01 6.67 0.02 6.34 -1 6 C-0.67 4.02 -0.34 2.04 0 0 Z " fill="#579093" transform="translate(91,38)"/>
<path d="M0 0 C4.67692308 1.47692308 4.67692308 1.47692308 6.3125 4.125 C6.539375 4.74375 6.76625 5.3625 7 6 C4.69 6.66 2.38 7.32 0 8 C0.33 7.01 0.66 6.02 1 5 C1.66 4.67 2.32 4.34 3 4 C2.01 2.68 1.02 1.36 0 0 Z " fill="#224547" transform="translate(147,29)"/>
<path d="M0 0 C1.63474626 3.26949252 1.01418775 6.77156225 0.9375 10.37109375 C0.87393186 13.11111337 0.87393186 13.11111337 2 16 C0.68 15.67 -0.64 15.34 -2 15 C-1.85973717 12.68715544 -1.71264442 10.37472409 -1.5625 8.0625 C-1.48128906 6.77472656 -1.40007813 5.48695312 -1.31640625 4.16015625 C-1 1 -1 1 0 0 Z " fill="#2A464A" transform="translate(27,43)"/>
<path d="M0 0 C0.33 0.66 0.66 1.32 1 2 C2.65 1.67 4.3 1.34 6 1 C5.67 1.66 5.34 2.32 5 3 C4.34 3.144375 3.68 3.28875 3 3.4375 C2.34 3.623125 1.68 3.80875 1 4 C0.67 4.99 0.34 5.98 0 7 C-0.99 6.67 -1.98 6.34 -3 6 C-1.125 1.125 -1.125 1.125 0 0 Z " fill="#4DA8AA" transform="translate(113,35)"/>
<path d="M0 0 C2.64 0 5.28 0 8 0 C8 0.99 8 1.98 8 3 C7.01 3.495 7.01 3.495 6 4 C5.01 5.485 5.01 5.485 4 7 C4 5.02 4 3.04 4 1 C2.68 0.67 1.36 0.34 0 0 Z " fill="#5B8F91" transform="translate(92,29)"/>
<path d="M0 0 C1.32 0 2.64 0 4 0 C4 1.65 4 3.3 4 5 C2.68 5 1.36 5 0 5 C0 3.35 0 1.7 0 0 Z " fill="#2F5152" transform="translate(129,60)"/>
<path d="M0 0 C2 1 2 1 2.8515625 3.06640625 C3.10679688 3.89011719 3.36203125 4.71382812 3.625 5.5625 C3.88539062 6.38878906 4.14578125 7.21507812 4.4140625 8.06640625 C4.60742188 8.70449219 4.80078125 9.34257813 5 10 C4.01 10.495 4.01 10.495 3 11 C2.49384702 9.73160474 1.99530901 8.46016898 1.5 7.1875 C1.2215625 6.47980469 0.943125 5.77210937 0.65625 5.04296875 C0 3 0 3 0 0 Z " fill="#609395" transform="translate(80,42)"/>
<path d="M0 0 C0.33 0.66 0.66 1.32 1 2 C3.32156597 2.40729228 5.6568787 2.74438677 8 3 C8 3.33 8 3.66 8 4 C4.7 4 1.4 4 -2 4 C-2 3.01 -2 2.02 -2 1 C-1.34 0.67 -0.68 0.34 0 0 Z " fill="#4D7B7E" transform="translate(101,51)"/>
<path d="M0 0 C0.66 0 1.32 0 2 0 C1.67 1.65 1.34 3.3 1 5 C-0.65 5 -2.3 5 -4 5 C-4.33 4.34 -4.66 3.68 -5 3 C-3.35 3 -1.7 3 0 3 C0 2.01 0 1.02 0 0 Z " fill="#233F40" transform="translate(165,50)"/>
<path d="M0 0 C0.66 0.66 1.32 1.32 2 2 C2.66 1.67 3.32 1.34 4 1 C4 2.32 4 3.64 4 5 C1.03 4.505 1.03 4.505 -2 4 C-1.34 2.68 -0.68 1.36 0 0 Z " fill="#599CA0" transform="translate(133,48)"/>
<path d="M0 0 C2 2 2 2 2.125 4.625 C2.08375 5.40875 2.0425 6.1925 2 7 C1.01 6.67 0.02 6.34 -1 6 C-1.8125 4.0625 -1.8125 4.0625 -2 2 C-1.34 1.34 -0.68 0.68 0 0 Z " fill="#1A473D" transform="translate(27,35)"/>
<path d="M0 0 C2.31 0 4.62 0 7 0 C6 2 6 2 3 4 C2.01 3.67 1.02 3.34 0 3 C0 2.01 0 1.02 0 0 Z " fill="#63999A" transform="translate(99,37)"/>
<path d="M0 0 C1.32 0.66 2.64 1.32 4 2 C3.2884375 2.6496875 3.2884375 2.6496875 2.5625 3.3125 C0.76313043 5.02309613 0.76313043 5.02309613 0 8 C-0.66 7.67 -1.32 7.34 -2 7 C-1.34 4.69 -0.68 2.38 0 0 Z " fill="#213F42" transform="translate(57,49)"/>
<path d="M0 0 C0.99 1.32 1.98 2.64 3 4 C2.01 4.495 2.01 4.495 1 5 C1 5.99 1 6.98 1 8 C0.34 8 -0.32 8 -1 8 C-1.125 2.25 -1.125 2.25 0 0 Z " fill="#274046" transform="translate(169,41)"/>
<path d="M0 0 C0.90305236 2.70915709 1.63723355 5.17042171 2 8 C1.34 8.66 0.68 9.32 0 10 C0 8.02 0 6.04 0 4 C-0.99 3.67 -1.98 3.34 -3 3 C-2.01 2.01 -1.02 1.02 0 0 Z " fill="#223A41" transform="translate(189,36)"/>
</svg>
