<?xml version="1.0" encoding="UTF-8"?>
<svg width="200px" height="60px" viewBox="0 0 200 60" version="1.1" xmlns="http://www.w3.org/2000/svg">
  <g fill="none" fill-rule="evenodd">
    <rect fill="#0072BC" x="0" y="0" width="200" height="60" rx="8"></rect>
    <text font-family="Arial-BoldMT, Arial" font-size="28" font-weight="bold" fill="#FFFFFF">
      <tspan x="20" y="40">VITANEUF</tspan>
    </text>
    <path d="M170,15 C173.866,15 177,18.134 177,22 C177,25.866 173.866,29 170,29 C166.134,29 163,25.866 163,22 C163,18.134 166.134,15 170,15 Z" fill="#FFFFFF"></path>
    <path d="M170,33 C173.866,33 177,36.134 177,40 C177,43.866 173.866,47 170,47 C166.134,47 163,43.866 163,40 C163,36.134 166.134,33 170,33 Z" fill="#FFFFFF"></path>
  </g>
</svg>